<svg width="376" height="91" viewBox="0 0 376 91" fill="none" xmlns="http://www.w3.org/2000/svg">
<path fill-rule="evenodd" clip-rule="evenodd" d="M9.6943 0.298367C7.5009 0.811108 5.06207 2.28231 3.29764 4.15723C-2.46503 10.2803 0.128045 24.3704 9.43972 24.5181L25.5748 24.689C41.1088 24.8532 41.8132 24.8872 44.4802 25.5981C55.0381 28.4113 63.0268 36.0376 66.1905 46.3232C66.9839 48.903 67.0811 49.7367 67.1065 54.1795C67.1306 58.4344 67.0263 59.5423 66.3799 61.8754C63.3025 72.987 54.1603 81.3576 42.5903 83.6578C40.3637 84.1003 33.9292 84.1003 31.7025 83.6578C20.1326 81.3576 10.9903 72.987 7.91292 61.8754C7.23786 59.4384 7.15799 58.4514 7.15799 52.5521V45.9545V45.6591C7.17266 43.2673 10.3811 42.6356 14.4504 42.6356H18.0268L18.152 50.4117C18.2635 57.3406 18.3544 58.4174 18.9875 60.2952C20.7965 65.6621 25.2674 70.1084 30.9753 72.2171C32.6117 72.8219 33.5605 72.9316 37.1464 72.9316C40.7323 72.9316 41.6812 72.8219 43.3175 72.2171C50.8472 69.4354 55.6004 63.252 56.1258 55.5558C56.3609 52.108 55.8312 49.5337 54.1926 46.1629C51.7237 41.0849 46.7121 37.2311 41.058 36.0633C39.2596 35.6919 35.8755 35.5919 25.0859 35.5916C10.2977 35.5909 8.98859 35.7086 6.25704 37.2834C4.16893 38.4872 1.62969 41.359 0.744057 43.5184C0.0370475 45.2419 -0.0108698 45.7871 0.00151673 51.9348C0.0116215 56.9657 0.150807 59.1446 0.59444 61.219C2.2099 68.7713 5.53634 74.8943 10.8916 80.1738C25.5344 94.6087 48.7585 94.6087 63.4013 80.1738C70.5105 73.1653 74.1883 64.5052 74.2362 54.6605C74.2669 48.3277 73.1136 43.4356 70.3051 37.986C66.1742 29.97 58.6533 23.2755 50.3479 20.2215C45.3023 18.3662 43.8756 18.167 34.2128 17.9701L25.0859 17.7842L24.9229 13.4552C24.7795 9.64347 24.6572 8.91075 23.901 7.32411C21.382 2.03925 15.2399 -0.998397 9.6943 0.298367ZM9.7295 7.63419C6.55855 9.59441 6.08949 13.9673 8.79888 16.3075C10.2494 17.5607 11.7426 17.9406 15.2255 17.9426L18.0777 17.9445L18.0705 14.6577C18.062 10.8341 17.4965 9.19518 15.7663 7.98307C14.2604 6.92809 11.1611 6.74884 9.7295 7.63419ZM24.9926 49.754C25.1136 56.2407 25.1941 57.0763 25.8623 58.748C26.8878 61.3136 29.3234 63.843 32.0311 65.1545C33.9986 66.1072 34.4709 66.204 37.1396 66.1992C39.6342 66.1951 40.3627 66.0649 41.9439 65.3399C51.4023 61.0045 47.4142 43.2769 40.406 42.7959L32.6328 42.6994L24.8596 42.6029L24.9926 49.754Z" fill="white"/>
<path d="M107.025 57.5132C107.566 57.6678 108.262 57.7838 109.113 57.8612C109.963 57.8998 110.775 57.9192 111.549 57.9192C113.095 57.9192 114.371 57.6098 115.377 56.9912C116.421 56.3338 116.943 55.3285 116.943 53.9752C116.943 52.6992 116.517 51.7905 115.667 51.2492C114.816 50.7078 113.521 50.4372 111.781 50.4372H107.025V57.5132ZM107.025 43.3612H111.259C112.921 43.3612 114.12 43.0518 114.855 42.4332C115.628 41.8145 116.015 40.9058 116.015 39.7072C116.015 38.6632 115.57 37.8318 114.681 37.2132C113.83 36.5945 112.535 36.2852 110.795 36.2852C110.215 36.2852 109.538 36.3045 108.765 36.3432C108.03 36.3818 107.45 36.4398 107.025 36.5172V43.3612ZM110.795 65.6912C110.137 65.6912 109.364 65.6719 108.475 65.6332C107.585 65.5945 106.657 65.5172 105.691 65.4012C104.763 65.2852 103.835 65.1305 102.907 64.9372C101.979 64.7825 101.128 64.5505 100.355 64.2412C98.2281 63.4292 97.1648 62.0179 97.1648 60.0072V32.9212C97.1648 32.1092 97.3774 31.4905 97.8028 31.0652C98.2668 30.6012 98.8854 30.2338 99.6588 29.9632C100.973 29.4992 102.617 29.1705 104.589 28.9772C106.561 28.7452 108.591 28.6292 110.679 28.6292C115.628 28.6292 119.437 29.4605 122.105 31.1232C124.773 32.7858 126.107 35.3572 126.107 38.8372C126.107 40.5772 125.604 42.0852 124.599 43.3612C123.593 44.5985 122.24 45.5072 120.539 46.0872C122.472 46.6285 124.077 47.6145 125.353 49.0452C126.667 50.4758 127.325 52.2738 127.325 54.4392C127.325 58.2672 125.894 61.1092 123.033 62.9652C120.21 64.7825 116.131 65.6912 110.795 65.6912ZM142.645 64.7052C142.22 64.7825 141.582 64.8792 140.731 64.9952C139.919 65.1499 139.088 65.2272 138.237 65.2272C137.386 65.2272 136.613 65.1692 135.917 65.0532C135.26 64.9372 134.699 64.7052 134.235 64.3572C133.771 64.0092 133.404 63.5452 133.133 62.9652C132.901 62.3465 132.785 61.5539 132.785 60.5872V26.9472C133.21 26.8698 133.829 26.7732 134.641 26.6572C135.492 26.5025 136.342 26.4252 137.193 26.4252C138.044 26.4252 138.798 26.4832 139.455 26.5992C140.151 26.7152 140.731 26.9472 141.195 27.2952C141.659 27.6432 142.007 28.1265 142.239 28.7452C142.51 29.3252 142.645 30.0985 142.645 31.0652V64.7052ZM178.331 50.6692C178.331 53.0665 177.963 55.2125 177.229 57.1072C176.494 58.9632 175.45 60.5292 174.097 61.8052C172.782 63.0812 171.197 64.0479 169.341 64.7052C167.485 65.3625 165.416 65.6912 163.135 65.6912C160.853 65.6912 158.785 65.3432 156.929 64.6472C155.073 63.9512 153.468 62.9652 152.115 61.6892C150.8 60.3745 149.775 58.7892 149.041 56.9332C148.306 55.0772 147.939 52.9892 147.939 50.6692C147.939 48.3878 148.306 46.3192 149.041 44.4632C149.775 42.6072 150.8 41.0412 152.115 39.7652C153.468 38.4505 155.073 37.4452 156.929 36.7492C158.785 36.0532 160.853 35.7052 163.135 35.7052C165.416 35.7052 167.485 36.0725 169.341 36.8072C171.197 37.5032 172.782 38.5085 174.097 39.8232C175.45 41.0992 176.494 42.6652 177.229 44.5212C177.963 46.3772 178.331 48.4265 178.331 50.6692ZM158.031 50.6692C158.031 53.0278 158.475 54.8452 159.365 56.1212C160.293 57.3585 161.569 57.9772 163.193 57.9772C164.817 57.9772 166.054 57.3392 166.905 56.0632C167.794 54.7872 168.239 52.9892 168.239 50.6692C168.239 48.3492 167.794 46.5705 166.905 45.3332C166.015 44.0572 164.759 43.4192 163.135 43.4192C161.511 43.4192 160.254 44.0572 159.365 45.3332C158.475 46.5705 158.031 48.3492 158.031 50.6692ZM197.177 35.7052C199.381 35.7052 201.373 35.9952 203.151 36.5752C204.969 37.1165 206.496 37.8318 207.733 38.7212C208.507 39.2625 209.106 39.8618 209.531 40.5192C209.995 41.1765 210.227 42.0272 210.227 43.0712V63.3712C210.227 65.4205 209.841 67.1799 209.067 68.6492C208.294 70.1572 207.231 71.3945 205.877 72.3612C204.563 73.3665 202.997 74.1012 201.179 74.5652C199.401 75.0292 197.487 75.2612 195.437 75.2612C191.919 75.2612 189.154 74.7779 187.143 73.8112C185.133 72.8832 184.127 71.3559 184.127 69.2292C184.127 68.3399 184.301 67.5472 184.649 66.8512C185.036 66.1939 185.461 65.6912 185.925 65.3432C187.047 65.9619 188.303 66.4839 189.695 66.9092C191.126 67.3345 192.595 67.5472 194.103 67.5472C196.191 67.5472 197.854 67.1992 199.091 66.5032C200.329 65.8072 200.947 64.6859 200.947 63.1392V62.2112C199.362 62.9072 197.429 63.2552 195.147 63.2552C193.407 63.2552 191.745 63.0039 190.159 62.5012C188.613 61.9599 187.24 61.1479 186.041 60.0652C184.881 58.9438 183.934 57.5132 183.199 55.7732C182.503 54.0332 182.155 51.9645 182.155 49.5672C182.155 47.2085 182.523 45.1592 183.257 43.4192C184.031 41.6792 185.075 40.2485 186.389 39.1272C187.743 37.9672 189.328 37.1165 191.145 36.5752C193.001 35.9952 195.012 35.7052 197.177 35.7052ZM200.773 44.1152C200.503 43.9605 200.097 43.8058 199.555 43.6512C199.053 43.4965 198.415 43.4192 197.641 43.4192C195.747 43.4192 194.316 43.9605 193.349 45.0432C192.421 46.0872 191.957 47.5952 191.957 49.5672C191.957 51.8098 192.421 53.4338 193.349 54.4392C194.316 55.4058 195.534 55.8892 197.003 55.8892C198.589 55.8892 199.845 55.5218 200.773 54.7872V44.1152ZM216.629 36.9812C217.016 36.8652 217.615 36.7492 218.427 36.6332C219.278 36.5172 220.148 36.4592 221.037 36.4592C221.888 36.4592 222.642 36.5172 223.299 36.6332C223.995 36.7492 224.575 36.9812 225.039 37.3292C225.503 37.6772 225.851 38.1605 226.083 38.7792C226.354 39.3592 226.489 40.1325 226.489 41.0992V53.5692C226.489 55.1545 226.876 56.2952 227.649 56.9912C228.423 57.6485 229.544 57.9772 231.013 57.9772C231.903 57.9772 232.618 57.8998 233.159 57.7452C233.739 57.5905 234.184 57.4359 234.493 57.2812V36.9812C234.88 36.8652 235.479 36.7492 236.291 36.6332C237.142 36.5172 238.012 36.4592 238.901 36.4592C239.752 36.4592 240.506 36.5172 241.163 36.6332C241.859 36.7492 242.439 36.9812 242.903 37.3292C243.367 37.6772 243.715 38.1605 243.947 38.7792C244.218 39.3592 244.353 40.1325 244.353 41.0992V58.7312C244.353 60.6645 243.541 62.1145 241.917 63.0812C240.564 63.9319 238.94 64.5699 237.045 64.9952C235.189 65.4592 233.159 65.6912 230.955 65.6912C228.867 65.6912 226.934 65.4592 225.155 64.9952C223.415 64.5312 221.907 63.8159 220.631 62.8492C219.355 61.8825 218.369 60.6452 217.673 59.1372C216.977 57.5905 216.629 55.7345 216.629 53.5692V36.9812ZM250.445 28.7452C250.445 27.2758 250.929 26.0385 251.895 25.0332C252.901 24.0278 254.215 23.5252 255.839 23.5252C257.463 23.5252 258.759 24.0278 259.725 25.0332C260.731 26.0385 261.233 27.2758 261.233 28.7452C261.233 30.2145 260.731 31.4518 259.725 32.4572C258.759 33.4625 257.463 33.9652 255.839 33.9652C254.215 33.9652 252.901 33.4625 251.895 32.4572C250.929 31.4518 250.445 30.2145 250.445 28.7452ZM260.769 64.7052C260.344 64.7825 259.706 64.8792 258.855 64.9952C258.043 65.1499 257.212 65.2272 256.361 65.2272C255.511 65.2272 254.737 65.1692 254.041 65.0532C253.384 64.9372 252.823 64.7052 252.359 64.3572C251.895 64.0092 251.528 63.5452 251.257 62.9652C251.025 62.3465 250.909 61.5539 250.909 60.5872V36.9812C251.335 36.9038 251.953 36.8072 252.765 36.6912C253.616 36.5365 254.467 36.4592 255.317 36.4592C256.168 36.4592 256.922 36.5172 257.579 36.6332C258.275 36.7492 258.855 36.9812 259.319 37.3292C259.783 37.6772 260.131 38.1605 260.363 38.7792C260.634 39.3592 260.769 40.1325 260.769 41.0992V64.7052ZM285.2 46.8992C285.2 45.7005 284.852 44.8305 284.156 44.2892C283.499 43.7092 282.59 43.4192 281.43 43.4192C280.657 43.4192 279.884 43.5158 279.11 43.7092C278.376 43.9025 277.738 44.1925 277.196 44.5792V64.7052C276.81 64.8212 276.191 64.9372 275.34 65.0532C274.528 65.1692 273.678 65.2272 272.788 65.2272C271.938 65.2272 271.164 65.1692 270.468 65.0532C269.811 64.9372 269.25 64.7052 268.786 64.3572C268.322 64.0092 267.955 63.5452 267.684 62.9652C267.452 62.3465 267.336 61.5539 267.336 60.5872V43.1872C267.336 42.1432 267.549 41.2925 267.974 40.6352C268.438 39.9778 269.057 39.3785 269.83 38.8372C271.145 37.9092 272.788 37.1552 274.76 36.5752C276.771 35.9952 278.994 35.7052 281.43 35.7052C285.8 35.7052 289.164 36.6718 291.522 38.6052C293.881 40.4998 295.06 43.1485 295.06 46.5512V64.7052C294.674 64.8212 294.055 64.9372 293.204 65.0532C292.392 65.1692 291.542 65.2272 290.652 65.2272C289.802 65.2272 289.028 65.1692 288.332 65.0532C287.675 64.9372 287.114 64.7052 286.65 64.3572C286.186 64.0092 285.819 63.5452 285.548 62.9652C285.316 62.3465 285.2 61.5539 285.2 60.5872V46.8992ZM329.281 64.7052C328.894 64.8212 328.275 64.9372 327.425 65.0532C326.613 65.1692 325.762 65.2272 324.873 65.2272C324.022 65.2272 323.249 65.1692 322.553 65.0532C321.895 64.9372 321.335 64.7052 320.871 64.3572C320.407 64.0092 320.039 63.5452 319.769 62.9652C319.537 62.3465 319.421 61.5539 319.421 60.5872V47.7112C319.421 46.1258 319.015 45.0238 318.203 44.4052C317.429 43.7478 316.463 43.4192 315.303 43.4192C314.529 43.4192 313.795 43.5158 313.099 43.7092C312.403 43.9025 311.842 44.1345 311.417 44.4052V64.7052C311.03 64.8212 310.411 64.9372 309.561 65.0532C308.749 65.1692 307.898 65.2272 307.009 65.2272C306.158 65.2272 305.385 65.1692 304.689 65.0532C304.031 64.9372 303.471 64.7052 303.007 64.3572C302.543 64.0092 302.175 63.5452 301.905 62.9652C301.673 62.3465 301.557 61.5539 301.557 60.5872V26.9472C301.982 26.8698 302.601 26.7732 303.413 26.6572C304.263 26.5025 305.114 26.4252 305.965 26.4252C306.815 26.4252 307.569 26.4832 308.227 26.5992C308.923 26.7152 309.503 26.9472 309.967 27.2952C310.431 27.6432 310.779 28.1265 311.011 28.7452C311.281 29.3252 311.417 30.0985 311.417 31.0652V36.7492C311.919 36.5558 312.673 36.3432 313.679 36.1112C314.723 35.8405 315.863 35.7052 317.101 35.7052C320.929 35.7052 323.906 36.6718 326.033 38.6052C328.198 40.4998 329.281 43.3418 329.281 47.1312V64.7052ZM364.833 50.6692C364.833 53.0665 364.465 55.2125 363.731 57.1072C362.996 58.9632 361.952 60.5292 360.599 61.8052C359.284 63.0812 357.699 64.0479 355.843 64.7052C353.987 65.3625 351.918 65.6912 349.637 65.6912C347.355 65.6912 345.287 65.3432 343.431 64.6472C341.575 63.9512 339.97 62.9652 338.617 61.6892C337.302 60.3745 336.277 58.7892 335.543 56.9332C334.808 55.0772 334.441 52.9892 334.441 50.6692C334.441 48.3878 334.808 46.3192 335.543 44.4632C336.277 42.6072 337.302 41.0412 338.617 39.7652C339.97 38.4505 341.575 37.4452 343.431 36.7492C345.287 36.0532 347.355 35.7052 349.637 35.7052C351.918 35.7052 353.987 36.0725 355.843 36.8072C357.699 37.5032 359.284 38.5085 360.599 39.8232C361.952 41.0992 362.996 42.6652 363.731 44.5212C364.465 46.3772 364.833 48.4265 364.833 50.6692ZM344.533 50.6692C344.533 53.0278 344.977 54.8452 345.867 56.1212C346.795 57.3585 348.071 57.9772 349.695 57.9772C351.319 57.9772 352.556 57.3392 353.407 56.0632C354.296 54.7872 354.741 52.9892 354.741 50.6692C354.741 48.3492 354.296 46.5705 353.407 45.3332C352.517 44.0572 351.261 43.4192 349.637 43.4192C348.013 43.4192 346.756 44.0572 345.867 45.3332C344.977 46.5705 344.533 48.3492 344.533 50.6692Z" fill="#FCFDFE"/>
</svg>
